ffmpeg started on 2025-06-07 at 18:09:24
Report written to "D:\Convert\FFMetrics\reports\psnr_report-6.txt"
Log level: 32
Command line:
ffmpeg -hide_banner -nostdin -i "G:\\\xc0\xed\xe8\xec\xe5\\\xce\xed\xe3\xee\xe8\xed\xe3\xe8\\!_36_\xce\xf1\xe5\xed\xfc_2024\\DreamCast\\\xdf \xf1\xf2\xe0\xed\xf3 \xe7\xeb\xee\xe4\xe5\xe9\xea\xee\xe9, \xea\xee\xf2\xee\xf0\xe0\xff \xe2\xee\xe9\xe4\xb8\xf2 \xe2 \xe8\xf1\xf2\xee\xf0\xe8\xfe\\[DC] Rekishi ni Nokoru Akujo ni Naruzo - 03_Telegram_HEVC.mkv" -i "G:\\\xc0\xed\xe8\xec\xe5\\\xce\xed\xe3\xee\xe8\xed\xe3\xe8\\!_36_\xce\xf1\xe5\xed\xfc_2024\\DreamCast\\\xdf \xf1\xf2\xe0\xed\xf3 \xe7\xeb\xee\xe4\xe5\xe9\xea\xee\xe9, \xea\xee\xf2\xee\xf0\xe0\xff \xe2\xee\xe9\xe4\xb8\xf2 \xe2 \xe8\xf1\xf2\xee\xf0\xe8\xfe\\[DC] Rekishi ni Nokoru Akujo ni Naruzo - 03_Telegram.mp4" -lavfi "[0:v]settb=AVTB,setpts=PTS-STARTPTS,format=pix_fmts=yuv420p10,fps=24000/1001,scale=1920:1080:flags=bicubic[main];[1:v]settb=AVTB,setpts=PTS-STARTPTS,format=pix_fmts=yuv420p,fps=24000/1001,scale=1920:1080:flags=bicubic[ref];[main][ref]psnr=eof_action=endall:stats_file='D\\:/Convert/FFMetrics/logs/psnr_logfile-6.txt'" -f null -
Input #0, matroska,webm, from 'G:\Аниме\Онгоинги\!_36_Осень_2024\DreamCast\Я стану злодейкой, которая войдёт в историю\[DC] Rekishi ni Nokoru Akujo ni Naruzo - 03_Telegram_HEVC.mkv':
  Metadata:
    COMPATIBLE_BRANDS: isomiso2avc1mp41
    MAJOR_BRAND     : isom
    MINOR_VERSION   : 512
    ENCODER         : Lavf61.7.100
  Duration: 00:23:46.60, start: -0.021000, bitrate: 720 kb/s
  Stream #0:0: Video: hevc (Main 10), yuv420p10le(tv, bt709, progressive), 1920x1080 [SAR 1:1 DAR 16:9], 23.98 fps, 23.98 tbr, 1k tbn (default)
      Metadata:
        HANDLER_NAME    : VideoHandler
        VENDOR_ID       : [0][0][0][0]
        ENCODER         : Lavc61.19.100 libx265
        BPS             : 523047
        DURATION        : 00:23:46.508708333
        NUMBER_OF_FRAMES: 34202
        NUMBER_OF_BYTES : 93266418
        _STATISTICS_WRITING_APP: mkvpropedit v66.0.0 ('Josie') 64-bit
        _STATISTICS_WRITING_DATE_UTC: 2025-06-06 09:56:04
        _STATISTICS_TAGS: BPS DURATION NUMBER_OF_FRAMES NUMBER_OF_BYTES
  Stream #0:1: Audio: aac (LC), 48000 Hz, stereo, fltp (default)
      Metadata:
        HANDLER_NAME    : SoundHandler
        VENDOR_ID       : [0][0][0][0]
        ENCODER         : Lavc61.19.100 aac
        BPS             : 193367
        DURATION        : 00:23:46.602000000
        NUMBER_OF_FRAMES: 66873
        NUMBER_OF_BYTES : 34482322
        _STATISTICS_WRITING_APP: mkvpropedit v66.0.0 ('Josie') 64-bit
        _STATISTICS_WRITING_DATE_UTC: 2025-06-06 09:56:04
        _STATISTICS_TAGS: BPS DURATION NUMBER_OF_FRAMES NUMBER_OF_BYTES
Input #1, mov,mp4,m4a,3gp,3g2,mj2, from 'G:\Аниме\Онгоинги\!_36_Осень_2024\DreamCast\Я стану злодейкой, которая войдёт в историю\[DC] Rekishi ni Nokoru Akujo ni Naruzo - 03_Telegram.mp4':
  Metadata:
    major_brand     : isom
    minor_version   : 512
    compatible_brands: isomiso2avc1mp41
    encoder         : Lavf61.1.100
  Duration: 00:23:46.57, start: 0.000000, bitrate: 3353 kb/s
  Stream #1:0[0x1](und): Video: h264 (High) (avc1 / 0x31637661), yuv420p(tv, bt709, progressive), 1920x1080 [SAR 1:1 DAR 16:9], 3206 kb/s, 23.98 fps, 23.98 tbr, 24k tbn (default)
      Metadata:
        handler_name    : VideoHandler
        vendor_id       : [0][0][0][0]
        encoder         : Lavc61.3.100 h264_qsv
  Stream #1:1[0x2](und): Audio: aac (HE-AACv2) (mp4a / 0x6134706D), 48000 Hz, stereo, fltp, 144 kb/s (default)
      Metadata:
        handler_name    : SoundHandler
        vendor_id       : [0][0][0][0]
Stream mapping:
  Stream #0:0 (hevc) -> settb:default
  Stream #1:0 (h264) -> settb:default
  psnr:default -> Stream #0:0 (wrapped_avframe)
  Stream #0:1 -> #0:1 (aac (native) -> pcm_s16le (native))
Output #0, null, to 'pipe:':
  Metadata:
    COMPATIBLE_BRANDS: isomiso2avc1mp41
    MAJOR_BRAND     : isom
    MINOR_VERSION   : 512
    encoder         : Lavf61.7.100
  Stream #0:0: Video: wrapped_avframe, yuv420p10le(tv, bt709, progressive), 1920x1080 [SAR 1:1 DAR 16:9], q=2-31, 200 kb/s, 23.98 fps, 23.98 tbn
      Metadata:
        encoder         : Lavc61.19.100 wrapped_avframe
  Stream #0:1: Audio: pcm_s16le, 48000 Hz, stereo, s16, 1536 kb/s (default)
      Metadata:
        HANDLER_NAME    : SoundHandler
        VENDOR_ID       : [0][0][0][0]
        _STATISTICS_TAGS: BPS DURATION NUMBER_OF_FRAMES NUMBER_OF_BYTES
        BPS             : 193367
        DURATION        : 00:23:46.602000000
        NUMBER_OF_FRAMES: 66873
        NUMBER_OF_BYTES : 34482322
        _STATISTICS_WRITING_APP: mkvpropedit v66.0.0 ('Josie') 64-bit
        _STATISTICS_WRITING_DATE_UTC: 2025-06-06 09:56:04
        encoder         : Lavc61.19.100 pcm_s16le
frame=  165 fps=0.0 q=-0.0 size=N/A time=00:00:06.88 bitrate=N/A speed=13.6x    frame=  428 fps=421 q=-0.0 size=N/A time=00:00:17.85 bitrate=N/A speed=17.6x    frame=  691 fps=449 q=-0.0 size=N/A time=00:00:28.82 bitrate=N/A speed=18.7x    frame=  898 fps=436 q=-0.0 size=N/A time=00:00:37.45 bitrate=N/A speed=18.2x    frame= 1122 fps=436 q=-0.0 size=N/A time=00:00:46.79 bitrate=N/A speed=18.2x    frame= 1296 fps=421 q=-0.0 size=N/A time=00:00:54.05 bitrate=N/A speed=17.5x    frame= 1497 fps=416 q=-0.0 size=N/A time=00:01:02.43 bitrate=N/A speed=17.3x    frame= 1716 fps=416 q=-0.0 size=N/A time=00:01:11.57 bitrate=N/A speed=17.4x    frame= 1925 fps=415 q=-0.0 size=N/A time=00:01:20.28 bitrate=N/A speed=17.3x    frame= 2144 fps=416 q=-0.0 size=N/A time=00:01:29.42 bitrate=N/A speed=17.3x    frame= 2329 fps=411 q=-0.0 size=N/A time=00:01:37.13 bitrate=N/A speed=17.1x    frame= 2551 fps=412 q=-0.0 size=N/A time=00:01:46.39 bitrate=N/A speed=17.2x    frame= 2762 fps=413 q=-0.0 size=N/A time=00:01:55.19 bitrate=N/A speed=17.2x    frame= 2949 fps=409 q=-0.0 size=N/A time=00:02:02.99 bitrate=N/A speed=17.1x    frame= 3185 fps=412 q=-0.0 size=N/A time=00:02:12.84 bitrate=N/A speed=17.2x    frame= 3425 fps=416 q=-0.0 size=N/A time=00:02:22.85 bitrate=N/A speed=17.3x    frame= 3665 fps=418 q=-0.0 size=N/A time=00:02:32.86 bitrate=N/A speed=17.5x    frame= 3912 fps=422 q=-0.0 size=N/A time=00:02:43.16 bitrate=N/A speed=17.6x    frame= 4172 fps=426 q=-0.0 size=N/A time=00:02:54.00 bitrate=N/A speed=17.8x    frame= 4422 fps=429 q=-0.0 size=N/A time=00:03:04.43 bitrate=N/A speed=17.9x    frame= 4667 fps=431 q=-0.0 size=N/A time=00:03:14.65 bitrate=N/A speed=  18x    frame= 4911 fps=433 q=-0.0 size=N/A time=00:03:24.82 bitrate=N/A speed=18.1x    frame= 5165 fps=435 q=-0.0 size=N/A time=00:03:35.42 bitrate=N/A speed=18.2x    frame= 5388 fps=435 q=-0.0 size=N/A time=00:03:44.72 bitrate=N/A speed=18.2x    frame= 5628 fps=436 q=-0.0 size=N/A time=00:03:54.73 bitrate=N/A speed=18.2x    frame= 5863 fps=437 q=-0.0 size=N/A time=00:04:04.53 bitrate=N/A speed=18.2x    frame= 6134 fps=440 q=-0.0 size=N/A time=00:04:15.83 bitrate=N/A speed=18.4x    frame= 6384 fps=442 q=-0.0 size=N/A time=00:04:26.26 bitrate=N/A speed=18.4x    frame= 6651 fps=444 q=-0.0 size=N/A time=00:04:37.40 bitrate=N/A speed=18.5x    frame= 6937 fps=448 q=-0.0 size=N/A time=00:04:49.33 bitrate=N/A speed=18.7x    frame= 7185 fps=449 q=-0.0 size=N/A time=00:04:59.67 bitrate=N/A speed=18.7x    frame= 7457 fps=452 q=-0.0 size=N/A time=00:05:11.01 bitrate=N/A speed=18.8x    frame= 7689 fps=452 q=-0.0 size=N/A time=00:05:20.69 bitrate=N/A speed=18.8x    frame= 7910 fps=451 q=-0.0 size=N/A time=00:05:29.91 bitrate=N/A speed=18.8x    frame= 8159 fps=452 q=-0.0 size=N/A time=00:05:40.29 bitrate=N/A speed=18.8x    frame= 8427 fps=454 q=-0.0 size=N/A time=00:05:51.47 bitrate=N/A speed=18.9x    frame= 8705 fps=456 q=-0.0 size=N/A time=00:06:03.07 bitrate=N/A speed=  19x    frame= 8942 fps=456 q=-0.0 size=N/A time=00:06:12.95 bitrate=N/A speed=  19x    frame= 9185 fps=457 q=-0.0 size=N/A time=00:06:23.09 bitrate=N/A speed=  19x    frame= 9416 fps=457 q=-0.0 size=N/A time=00:06:32.72 bitrate=N/A speed=  19x    frame= 9682 fps=458 q=-0.0 size=N/A time=00:06:43.82 bitrate=N/A speed=19.1x    frame= 9947 fps=459 q=-0.0 size=N/A time=00:06:54.87 bitrate=N/A speed=19.2x    frame=10184 fps=459 q=-0.0 size=N/A time=00:07:04.75 bitrate=N/A speed=19.1x    frame=10439 fps=460 q=-0.0 size=N/A time=00:07:15.39 bitrate=N/A speed=19.2x    frame=10714 fps=461 q=-0.0 size=N/A time=00:07:26.86 bitrate=N/A speed=19.2x    frame=10990 fps=463 q=-0.0 size=N/A time=00:07:38.37 bitrate=N/A speed=19.3x    frame=11275 fps=465 q=-0.0 size=N/A time=00:07:50.26 bitrate=N/A speed=19.4x    frame=11555 fps=467 q=-0.0 size=N/A time=00:08:01.93 bitrate=N/A speed=19.5x    frame=11834 fps=468 q=-0.0 size=N/A time=00:08:13.57 bitrate=N/A speed=19.5x    frame=12061 fps=468 q=-0.0 size=N/A time=00:08:23.04 bitrate=N/A speed=19.5x    frame=12295 fps=467 q=-0.0 size=N/A time=00:08:32.80 bitrate=N/A speed=19.5x    frame=12559 fps=468 q=-0.0 size=N/A time=00:08:43.81 bitrate=N/A speed=19.5x    frame=12812 fps=469 q=-0.0 size=N/A time=00:08:54.36 bitrate=N/A speed=19.5x    frame=13089 fps=470 q=-0.0 size=N/A time=00:09:05.92 bitrate=N/A speed=19.6x    frame=13356 fps=471 q=-0.0 size=N/A time=00:09:17.05 bitrate=N/A speed=19.6x    frame=13624 fps=472 q=-0.0 size=N/A time=00:09:28.23 bitrate=N/A speed=19.7x    frame=13887 fps=472 q=-0.0 size=N/A time=00:09:39.20 bitrate=N/A speed=19.7x    frame=14113 fps=472 q=-0.0 size=N/A time=00:09:48.62 bitrate=N/A speed=19.7x    frame=14375 fps=472 q=-0.0 size=N/A time=00:09:59.55 bitrate=N/A speed=19.7x    frame=14627 fps=473 q=-0.0 size=N/A time=00:10:10.06 bitrate=N/A speed=19.7x    frame=14898 fps=474 q=-0.0 size=N/A time=00:10:21.37 bitrate=N/A speed=19.8x    frame=15170 fps=474 q=-0.0 size=N/A time=00:10:32.71 bitrate=N/A speed=19.8x    frame=15448 fps=476 q=-0.0 size=N/A time=00:10:44.31 bitrate=N/A speed=19.8x    frame=15724 fps=476 q=-0.0 size=N/A time=00:10:55.82 bitrate=N/A speed=19.9x    frame=15981 fps=477 q=-0.0 size=N/A time=00:11:06.54 bitrate=N/A speed=19.9x    frame=16251 fps=477 q=-0.0 size=N/A time=00:11:17.80 bitrate=N/A speed=19.9x    frame=16523 fps=478 q=-0.0 size=N/A time=00:11:29.14 bitrate=N/A speed=19.9x    frame=16764 fps=478 q=-0.0 size=N/A time=00:11:39.19 bitrate=N/A speed=19.9x    frame=17018 fps=478 q=-0.0 size=N/A time=00:11:49.79 bitrate=N/A speed=19.9x    frame=17286 fps=479 q=-0.0 size=N/A time=00:12:00.97 bitrate=N/A speed=  20x    frame=17542 fps=479 q=-0.0 size=N/A time=00:12:11.64 bitrate=N/A speed=  20x    frame=17814 fps=480 q=-0.0 size=N/A time=00:12:22.99 bitrate=N/A speed=  20x    frame=18067 fps=480 q=-0.0 size=N/A time=00:12:33.54 bitrate=N/A speed=  20x    frame=18329 fps=480 q=-0.0 size=N/A time=00:12:44.47 bitrate=N/A speed=  20x    frame=18580 fps=480 q=-0.0 size=N/A time=00:12:54.94 bitrate=N/A speed=  20x    frame=18851 fps=481 q=-0.0 size=N/A time=00:13:06.24 bitrate=N/A speed=20.1x    frame=19076 fps=480 q=-0.0 size=N/A time=00:13:15.62 bitrate=N/A speed=  20x    frame=19297 fps=480 q=-0.0 size=N/A time=00:13:24.84 bitrate=N/A speed=  20x    frame=19543 fps=480 q=-0.0 size=N/A time=00:13:35.10 bitrate=N/A speed=  20x    frame=19818 fps=480 q=-0.0 size=N/A time=00:13:46.57 bitrate=N/A speed=  20x    frame=20065 fps=480 q=-0.0 size=N/A time=00:13:56.87 bitrate=N/A speed=  20x    frame=20320 fps=480 q=-0.0 size=N/A time=00:14:07.51 bitrate=N/A speed=  20x    frame=20585 fps=481 q=-0.0 size=N/A time=00:14:18.56 bitrate=N/A speed=20.1x    frame=20855 fps=481 q=-0.0 size=N/A time=00:14:29.82 bitrate=N/A speed=20.1x    frame=21098 fps=481 q=-0.0 size=N/A time=00:14:39.96 bitrate=N/A speed=20.1x    frame=21351 fps=481 q=-0.0 size=N/A time=00:14:50.51 bitrate=N/A speed=20.1x    frame=21601 fps=481 q=-0.0 size=N/A time=00:15:00.94 bitrate=N/A speed=20.1x    frame=21855 fps=481 q=-0.0 size=N/A time=00:15:11.53 bitrate=N/A speed=20.1x    frame=22126 fps=482 q=-0.0 size=N/A time=00:15:22.83 bitrate=N/A speed=20.1x    frame=22381 fps=482 q=-0.0 size=N/A time=00:15:33.47 bitrate=N/A speed=20.1x    frame=22654 fps=483 q=-0.0 size=N/A time=00:15:44.86 bitrate=N/A speed=20.1x    frame=22909 fps=483 q=-0.0 size=N/A time=00:15:55.49 bitrate=N/A speed=20.1x    frame=23177 fps=483 q=-0.0 size=N/A time=00:16:06.67 bitrate=N/A speed=20.1x    frame=23431 fps=483 q=-0.0 size=N/A time=00:16:17.26 bitrate=N/A speed=20.1x    frame=23677 fps=483 q=-0.0 size=N/A time=00:16:27.52 bitrate=N/A speed=20.1x    frame=23929 fps=483 q=-0.0 size=N/A time=00:16:38.03 bitrate=N/A speed=20.1x    frame=24205 fps=484 q=-0.0 size=N/A time=00:16:49.55 bitrate=N/A speed=20.2x    frame=24463 fps=484 q=-0.0 size=N/A time=00:17:00.31 bitrate=N/A speed=20.2x    frame=24744 fps=484 q=-0.0 size=N/A time=00:17:12.03 bitrate=N/A speed=20.2x    frame=25013 fps=485 q=-0.0 size=N/A time=00:17:23.25 bitrate=N/A speed=20.2x    frame=25278 fps=485 q=-0.0 size=N/A time=00:17:34.30 bitrate=N/A speed=20.2x    frame=25531 fps=485 q=-0.0 size=N/A time=00:17:44.85 bitrate=N/A speed=20.2x    frame=25813 fps=486 q=-0.0 size=N/A time=00:17:56.61 bitrate=N/A speed=20.3x    frame=26074 fps=486 q=-0.0 size=N/A time=00:18:07.50 bitrate=N/A speed=20.3x    frame=26336 fps=486 q=-0.0 size=N/A time=00:18:18.43 bitrate=N/A speed=20.3x    frame=26574 fps=486 q=-0.0 size=N/A time=00:18:28.35 bitrate=N/A speed=20.3x    frame=26842 fps=486 q=-0.0 size=N/A time=00:18:39.53 bitrate=N/A speed=20.3x    frame=27116 fps=487 q=-0.0 size=N/A time=00:18:50.96 bitrate=N/A speed=20.3x    frame=27373 fps=487 q=-0.0 size=N/A time=00:19:01.68 bitrate=N/A speed=20.3x    frame=27625 fps=487 q=-0.0 size=N/A time=00:19:12.19 bitrate=N/A speed=20.3x    frame=27868 fps=487 q=-0.0 size=N/A time=00:19:22.32 bitrate=N/A speed=20.3x    frame=28111 fps=486 q=-0.0 size=N/A time=00:19:32.46 bitrate=N/A speed=20.3x    frame=28380 fps=487 q=-0.0 size=N/A time=00:19:43.68 bitrate=N/A speed=20.3x    frame=28653 fps=487 q=-0.0 size=N/A time=00:19:55.06 bitrate=N/A speed=20.3x    frame=28889 fps=487 q=-0.0 size=N/A time=00:20:04.91 bitrate=N/A speed=20.3x    frame=29170 fps=487 q=-0.0 size=N/A time=00:20:16.63 bitrate=N/A speed=20.3x    frame=29453 fps=488 q=-0.0 size=N/A time=00:20:28.43 bitrate=N/A speed=20.4x    frame=29730 fps=488 q=-0.0 size=N/A time=00:20:39.98 bitrate=N/A speed=20.4x    frame=29971 fps=488 q=-0.0 size=N/A time=00:20:50.04 bitrate=N/A speed=20.4x    frame=30228 fps=488 q=-0.0 size=N/A time=00:21:00.75 bitrate=N/A speed=20.4x    frame=30509 fps=489 q=-0.0 size=N/A time=00:21:12.47 bitrate=N/A speed=20.4x    frame=30765 fps=489 q=-0.0 size=N/A time=00:21:23.15 bitrate=N/A speed=20.4x    frame=31038 fps=489 q=-0.0 size=N/A time=00:21:34.54 bitrate=N/A speed=20.4x    frame=31332 fps=490 q=-0.0 size=N/A time=00:21:46.80 bitrate=N/A speed=20.4x    frame=31593 fps=490 q=-0.0 size=N/A time=00:21:57.69 bitrate=N/A speed=20.4x    frame=31853 fps=490 q=-0.0 size=N/A time=00:22:08.53 bitrate=N/A speed=20.4x    frame=32127 fps=490 q=-0.0 size=N/A time=00:22:19.96 bitrate=N/A speed=20.4x    frame=32386 fps=490 q=-0.0 size=N/A time=00:22:30.76 bitrate=N/A speed=20.5x    frame=32611 fps=490 q=-0.0 size=N/A time=00:22:40.15 bitrate=N/A speed=20.4x    frame=32875 fps=490 q=-0.0 size=N/A time=00:22:51.16 bitrate=N/A speed=20.4x    frame=33125 fps=490 q=-0.0 size=N/A time=00:23:01.58 bitrate=N/A speed=20.4x    frame=33372 fps=490 q=-0.0 size=N/A time=00:23:11.89 bitrate=N/A speed=20.4x    frame=33596 fps=490 q=-0.0 size=N/A time=00:23:21.23 bitrate=N/A speed=20.4x    frame=33867 fps=490 q=-0.0 size=N/A time=00:23:32.53 bitrate=N/A speed=20.4x    frame=34124 fps=490 q=-0.0 size=N/A time=00:23:43.25 bitrate=N/A speed=20.4x    [Parsed_psnr_10 @ 00000178ca8e9d00] PSNR y:49.804398 u:51.026003 v:50.970870 average:50.167094 min:41.096298 max:inf
[out#0/null @ 00000178bd7d6540] video:14696KiB audio:267492KiB subtitle:0KiB other streams:0KiB global headers:0KiB muxing overhead: unknown
frame=34202 fps=490 q=-0.0 Lsize=N/A time=00:23:46.50 bitrate=N/A speed=20.4x    
